<svg xmlns="http://www.w3.org/2000/svg" width="85px" height="84px" viewBox="0 0 85 84" version="1.1">
    <g id="Home" stroke="none" stroke-width="1" fill="none" fill-rule="evenodd">
        <g id="Desktop-HD" transform="translate(-667.000000, -2272.000000)">
            <g id="Work-with-us-Section" transform="translate(0.000000, 1721.000000)">
                <g id="Form" transform="translate(170.500000, 379.513962)">
                    <g id="Industry" transform="translate(64.000000, 95.954521)">
                        <g id="icon_equipment" transform="translate(427.469373, 69.469645)">
                            <g id="Wrench-icon" transform="translate(47.915980, 47.127597) rotate(-4.000000) translate(-47.915980, -47.127597) translate(6.915980, 10.260860)" stroke-width="1.5" stroke="#099870" fill="#F0FEFA">
                                <path d="M14.2806354 62.5043717L11.2601656 59.0297187 54.7787706 21.1995725 57.7992404 24.6742255 14.2806354 62.5043717ZM7.36633663 67.8931992C8.8919549 67.8931992 10.1287129 66.6440147 10.1287129 65.1030677 10.1287129 63.5621206 8.8919549 62.3129362 7.36633663 62.3129362 5.84071836 62.3129362 4.6039604 63.5621206 4.6039604 65.1030677 4.6039604 66.6440147 5.84071836 67.8931992 7.36633663 67.8931992ZM61.058488 27.1902881C63.0370384 28.2384205 65.2890729 28.8313585 67.6782178 28.8313585 75.5605789 28.8313585 81.950495 22.3772391 81.950495 14.4156793 81.950495 14.1623825 81.9440272 13.9106116 81.9312493 13.6605258L81.9312493 13.6605258 73.4650698 19.158527C72.6153895 19.7103158 71.4785494 19.4677108 70.927659 18.619414L65.4030264 10.1122259C64.8513334 9.26269317 65.0945395 8.1256328 65.9425802 7.57490876L74.7207119 1.87432338C72.6427493 0.681329718 70.2392586 5.05412505e-13 67.6782178 5.05412505e-13 59.7958568 5.05412505e-13 53.4059406 6.45411945 53.4059406 14.4156793 53.4059406 15.1644366 53.4624578 15.899861 53.5714185 16.6178378L1.97463778 61.470235C-0.704881402 63.7995055-0.991871686 67.8726632 1.34355147 70.5592602 3.67422252 73.2403906 7.74799068 73.5323965 10.4319532 71.1992635L61.058488 27.1902881Z"/>
                            </g>
                            <g id="Screwdriver-icon" transform="translate(46.329744, 47.226989) rotate(-45.000000) translate(-46.329744, -47.226989) translate(36.829744, -8.773011)">
                                <path d="M12.2260726 11.1630676L12.2260726 73.4734621 7.11056106 73.4734621 7.11056106 11.1751065C6.36412696 9.95357767 5.06435644 7.62384673 5.06435644 6.21216959 5.06435644 4.19934934 7.62211221 5.04485342e-13 7.62211221 5.04485342e-13L11.7145215 5.04485342e-13C11.7145215 5.04485342e-13 14.2722772 4.13107294 14.2722772 6.21216959 14.2722772 7.57517526 12.9725067 9.92562656 12.2260726 11.1630676L12.2260726 11.1630676Z" id="Rectangle-22" stroke="#51BE9D" stroke-width="1.5" fill="#F0FEFA"/>
                                <rect id="Rectangle-20" stroke="#51BE9D" stroke-width="1.5" fill="#F0FEFA" x="1.84158416" y="76.2635936" width="15.6534653" height="35.3416653"/>
                                <rect id="Rectangle-24" fill="#51BE9D" x="6.44554455" y="79.9837689" width="1.5" height="26.9712709" rx="0.920000017"/>
                                <rect id="Rectangle-24-Copy" fill="#51BE9D" x="11.049505" y="79.9837689" width="1.5" height="26.9712709" rx="0.920000017"/>
                                <path d="M1.15593704 72.5034451C1.28033977 71.4982237 2.20310812 70.6833306 3.21825054 70.6833306L16.1183831 70.6833306C17.1329647 70.6833306 18.0575045 71.5080064 18.1806965 72.5034451L18.6509862 76.3035667C18.7753888 77.3087882 18.0611694 78.1236812 17.0431288 78.1236812L2.29350439 78.1236812C1.28110661 78.1236812 0.562455071 77.2990055 0.68564713 76.3035667L1.15593704 72.5034451Z" id="Rectangle-21" stroke="#51BE9D" stroke-width="1.5" fill="#F0FEFA"/>
                            </g>
                        </g>
                    </g>
                </g>
            </g>
        </g>
    </g>
</svg>