<svg xmlns="http://www.w3.org/2000/svg" width="75" height="96" viewBox="0 0 75 96" version="1.1">
  <g stroke="none" stroke-width="1" fill="none" fill-rule="evenodd">
    <g transform="translate(-288.000000, -2265.000000)" stroke="#51BE9D" stroke-width="1.5" fill="#F0FEFA">
      <g transform="translate(0.000000, 1721.000000)">
        <g transform="translate(170.500000, 379.513962)">
          <g transform="translate(64.000000, 95.954521)">
            <path d="M84.3 142.9C84.8 142.2 85.1 141.3 85.1 140.3 85.1 137.8 83.1 135.7 80.6 135.7 78.1 135.7 76.1 137.8 76.1 140.3 76.1 141.3 76.4 142.2 76.9 142.9L65.2 142.9 59.2 154.4C57.2 158.1 59 161.1 63.2 161.1L118.7 161.1C122.9 161.1 124.7 158.1 122.7 154.4L116.7 142.9 84.3 142.9 84.3 142.9ZM102 139.9C104.7 139.9 106.9 137.7 106.9 135 106.9 132.3 104.7 130.1 102 130.1 99.3 130.1 97.1 132.3 97.1 135 97.1 137.7 99.3 139.9 102 139.9L102 139.9ZM91.5 122.5C95.4 122.5 98.6 119.3 98.6 115.3 98.6 111.3 95.4 108.1 91.5 108.1 87.6 108.1 84.4 111.3 84.4 115.3 84.4 119.3 87.6 122.5 91.5 122.5L91.5 122.5ZM81.7 76.3L81.7 102.8 55 156.6C53.1 160.4 55 163.4 59.2 163.4L122.4 163.4C126.6 163.4 128.4 160.4 126.6 156.6L99.8 102.6 99.8 76.3 100.1 76.3C102 76.3 103.5 74.8 103.5 72.9 103.5 71 102 69.5 100.1 69.5L80.6 69.5C78.7 69.5 77.2 71 77.2 72.9 77.2 74.8 78.7 76.3 80.6 76.3L81.7 76.3 81.7 76.3Z"/>
          </g>
        </g>
      </g>
    </g>
  </g>
</svg>
