<?xml version="1.0" encoding="UTF-8" standalone="no"?>
<svg width="65px" height="81px" viewBox="0 0 65 81" version="1.1" xmlns="http://www.w3.org/2000/svg" xmlns:xlink="http://www.w3.org/1999/xlink">
    <g id="icon_food_beverages">
        <path d="M58.7098678,49.2115956 L57.414082,45.2647871 L59.9659243,45.2647871 L58.7098678,49.2115956 L58.7098678,49.2115956 Z M50.0122115,76.4679415 L48.5972379,72.0345841 L49.9785944,67.7036579 L51.3905119,72.1434174 L50.0122115,76.4679415 L50.0122115,76.4679415 Z M42.549219,45.2647871 L41.2870504,49.1027623 L40.0615549,45.2647871 L42.549219,45.2647871 L42.549219,45.2647871 Z M55.1372887,51.5034974 L56.4697476,47.3166154 L57.8449919,51.4938945 C57.8633285,51.5515121 57.90917,51.57712 57.9366749,51.6251347 L56.5767111,55.8920412 L55.1372887,51.5034974 L55.1372887,51.5034974 Z M52.9582905,58.347193 L54.339647,54.0034629 L55.7790694,58.3920067 L54.3793763,62.7837514 L52.9582905,58.347193 L52.9582905,58.347193 Z M52.1545366,60.8727663 L53.5358931,65.1940895 C53.5450614,65.2228983 53.5756224,65.2357022 53.5878467,65.2613101 L52.200378,69.6146431 L50.7854044,65.1716826 L52.1545366,60.8727663 L52.1545366,60.8727663 Z M48.6186306,58.3663988 L49.9816505,54.0930904 L51.3477266,58.3503939 L49.9785944,62.6429083 L48.6186306,58.3663988 L48.6186306,58.3663988 Z M46.552708,64.8227758 L47.8087645,60.8919722 L49.1748405,65.1716826 L47.793484,69.5058097 L46.3785104,65.0724522 C46.4426885,64.9924277 46.5221471,64.9284081 46.552708,64.8227758 L46.552708,64.8227758 L46.552708,64.8227758 Z M44.2728586,58.0655067 L45.6144858,53.990659 L47.0080667,58.3631979 L45.6236541,62.697325 L44.1842317,58.1903449 C44.2117366,58.1455312 44.254522,58.1199234 44.2728586,58.0655067 L44.2728586,58.0655067 L44.2728586,58.0655067 Z M44.8199002,51.4938945 L43.4140949,55.770404 L42.081636,51.5995268 L43.4874413,47.3166154 L44.8199002,51.4938945 L44.8199002,51.4938945 Z M45.6389346,49.0035319 L44.4470562,45.2647871 L46.8674862,45.2647871 L45.6389346,49.0035319 L45.6389346,49.0035319 Z M49.1778966,51.573919 L47.8118206,55.8376245 L46.4304641,51.4970955 L47.8087645,47.3102134 L49.1778966,51.573919 L49.1778966,51.573919 Z M49.9816505,49.0547476 L48.7683794,45.2647871 L51.1918655,45.2647871 L49.9816505,49.0547476 L49.9816505,49.0547476 Z M53.5267248,51.5066984 L52.1484244,55.8248206 L50.7884605,51.573919 L52.1484244,47.3134144 L53.5267248,51.5066984 L53.5267248,51.5066984 Z M53.0927588,45.2647871 L55.5131888,45.2647871 L54.3182543,49.0099339 L53.0927588,45.2647871 L53.0927588,45.2647871 Z M60.5588074,43.6642971 L39.4686718,43.6642971 L39.1508375,43.027302 L60.8766416,43.027302 L60.5588074,43.6642971 L60.5588074,43.6642971 Z M61.9798932,40.7962189 L61.6681711,41.4268119 L38.359308,41.4268119 L38.0445299,40.7962189 L61.9798932,40.7962189 L61.9798932,40.7962189 Z M37.5280492,36.5453172 C37.5280492,35.0792683 38.6618618,33.8917047 40.0584988,33.8917047 L42.2955629,33.8917047 C42.7142484,33.8917047 43.0595875,33.5331949 43.0595875,33.0914597 C43.0595875,33.0882587 43.0565314,33.0882587 43.0565314,33.0882587 C43.0565314,33.0818567 43.0595875,33.0818567 43.0595875,33.0786557 C43.0595875,32.6401215 42.7142484,32.2784107 42.2955629,32.2784107 C40.901982,32.2784107 39.7681694,31.0876461 39.7681694,29.6215972 C39.7681694,28.1587493 40.901982,26.9711856 42.2955629,26.9711856 L57.7288602,26.9711856 C59.1224411,26.9711856 60.2562536,28.1587493 60.2562536,29.6215972 C60.2562536,31.0876461 59.1224411,32.2784107 57.7288602,32.2784107 L49.7982846,32.2784107 C49.376543,32.2784107 49.03426,32.6401215 49.03426,33.0786557 C49.03426,33.520391 49.376543,33.8789008 49.7982846,33.8789008 L49.8349578,33.8789008 C49.8441261,33.8789008 49.8502383,33.8917047 49.8624627,33.8917047 L59.9200828,33.8917047 C61.3167198,33.8917047 62.4505323,35.0792683 62.4505323,36.5453172 C62.4505323,38.0081652 61.3167198,39.1957288 59.9200828,39.1957288 L40.0584988,39.1957288 C38.6618618,39.1957288 37.5280492,38.0081652 37.5280492,36.5453172 L37.5280492,36.5453172 L37.5280492,36.5453172 Z M44.4990099,20.0698724 L49.9541457,20.0698724 C50.3728311,20.0698724 50.7181703,19.7113627 50.7181703,19.2696274 C50.7181703,18.8278921 50.3728311,18.4693824 49.9541457,18.4693824 L46.8399813,18.4693824 C46.8247008,18.4693824 46.8155325,18.4501765 46.7971959,18.4501765 C45.4005589,18.4501765 44.2667464,17.2626129 44.2667464,15.7997649 C44.2667464,14.336917 45.4005589,13.1493534 46.7971959,13.1493534 L47.7873718,13.1493534 C47.8332133,13.1493534 47.8637743,13.1045397 47.9126719,13.0949367 C48.010467,13.0757308 48.0807573,13.04052 48.1693841,12.9829024 C48.2549549,12.9284857 48.3160769,12.8740691 48.3771988,12.7876426 C48.4047037,12.7460299 48.4566574,12.7364269 48.4780501,12.6884122 L49.1778966,11.1327359 C50.0060993,19.9514362 54.1715616,20.0698724 54.370208,20.0698724 L55.5315254,20.0698724 C56.9281624,20.0698724 58.065031,21.2574361 58.065031,22.720284 C58.065031,24.1831319 56.9281624,25.3706956 55.5315254,25.3706956 L44.4990099,25.3706956 C43.1023729,25.3706956 41.9655042,24.1831319 41.9655042,22.720284 C41.9655042,21.2574361 43.1023729,20.0698724 44.4990099,20.0698724 L44.4990099,20.0698724 L44.4990099,20.0698724 Z M63.2359496,39.1957288 L63.0189666,39.1957288 C63.5935132,38.4595034 63.9785816,37.5632289 63.9785816,36.5453172 C63.9785816,34.490288 62.5574958,32.8513861 60.7055001,32.4576656 C61.3595052,31.7022343 61.7843029,30.7195334 61.7843029,29.6215972 C61.7843029,27.5729699 60.3632171,25.94047 58.5203897,25.5403475 C59.1682826,24.7881172 59.5930803,23.8118182 59.5930803,22.720284 C59.5930803,20.3771665 57.7685895,18.4693824 55.5315254,18.4693824 L54.3885445,18.4693824 C54.3488153,18.4661814 50.5623093,18.1620883 50.5623093,7.87093712 C50.5623093,7.49642244 50.3147653,7.17312345 49.96637,7.08989797 C49.593526,7.00667248 49.2573552,7.19553031 49.1045503,7.53163323 L47.2983961,11.5488633 L46.7971959,11.5488633 C44.5601318,11.5488633 42.7386971,13.4566475 42.7386971,15.7997649 C42.7386971,16.8912992 43.1604387,17.8643971 43.8083316,18.6166275 C41.9104945,18.9719363 40.437455,20.6332449 40.437455,22.720284 C40.437455,23.8118182 40.8622527,24.7849162 41.5101456,25.5371465 C39.661206,25.9340681 38.2401202,27.5697689 38.2401202,29.6215972 C38.2401202,30.7163324 38.6618618,31.6958323 39.3128108,32.4512636 C37.4424785,32.8289793 36,34.4774841 36,36.5453172 C36,37.5632289 36.3911806,38.4595034 36.962671,39.1957288 L36.7884734,39.1957288 C36.5225928,39.1957288 36.2750489,39.3429739 36.1344683,39.5798464 C35.9969439,39.8167189 35.9877756,40.1176111 36.1100195,40.3640865 L38.29513,44.7718362 L49.2879162,79.2463923 C49.3918235,79.5760933 49.685209,79.7937599 50.0122115,79.7937599 C50.3422702,79.7937599 50.6325995,79.5760933 50.7365069,79.2463923 L61.7323492,44.7718362 L63.9144035,40.3640865 C64.0366474,40.1144101 64.0274791,39.8167189 63.8899547,39.5798464 C63.7493742,39.3429739 63.5018302,39.1957288 63.2359496,39.1957288 L63.2359496,39.1957288 L63.2359496,39.1957288 Z" id="icon_icecream" fill="#099870"></path>
        <path d="M3.55854167,62.7942067 C4.09866667,61.4663709 4.60616667,60.2145149 4.60616667,58.7093933 C4.60616667,55.655733 3.66729167,52.4573494 2.91691667,49.8848939 C2.55079167,48.640274 2.22816667,47.5295232 2.07229167,46.6611838 L26.3271667,46.6611838 C26.1749167,47.5295232 25.8595417,48.6475102 25.5006667,49.89213 C24.7647917,52.4609675 23.8476667,55.6593511 23.8476667,58.7093933 C23.8476667,60.2362234 24.4276667,61.4989337 25.0439167,62.8340055 C25.8015417,64.4802324 26.5881667,66.1843485 26.5881667,68.8146933 C26.5881667,77.0892444 25.5731667,78.6016022 23.5612917,78.6016022 L23.5250417,78.6016022 C23.3546667,78.6016022 23.1770417,78.5871299 23.0102917,78.5690395 C23.9527917,77.0675359 24.1811667,74.8713608 24.2609167,72.7511654 C24.3225417,72.1288555 24.6089167,71.4522743 24.8119167,71.4522743 C25.3085417,71.4522743 25.7181667,71.0470493 25.7181667,70.5477541 C25.7181667,70.0484589 25.3085417,69.6432339 24.8119167,69.6432339 C23.1625417,69.6432339 22.5571667,71.4920732 22.4520417,72.6317687 C22.2381667,78.1529602 20.9766667,78.6016022 19.4722917,78.6016022 C17.9497917,78.6016022 16.9420417,78.1927591 16.7825417,72.7186027 C16.7680417,72.2229256 16.3584167,71.839409 15.8509167,71.839409 C15.3470417,71.8538813 14.9555417,72.2699606 14.9700417,72.7692558 C15.0280417,74.7953811 15.1694167,76.7093459 15.7929167,78.1203975 C15.5029167,78.3917536 15.0715417,78.5943661 14.2631667,78.6016022 C13.5309167,78.6016022 13.0596667,78.3881355 12.6681667,78.0371816 C13.2626667,76.6333662 13.4040417,74.7555822 13.4620417,72.7692558 C13.4765417,72.2699606 13.0814167,71.8538813 12.5811667,71.839409 L12.5557917,71.839409 C12.0664167,71.839409 11.6640417,72.2301617 11.6495417,72.7186027 C11.4900417,78.1927591 10.4786667,78.6016022 8.95254167,78.6016022 C7.44816667,78.6016022 6.18666667,78.1529602 5.96554167,72.5883517 C5.87129167,71.4920732 5.26954167,69.6432339 3.61291667,69.6432339 C3.11266667,69.6432339 2.70666667,70.0484589 2.70666667,70.5477541 C2.70666667,71.0470493 3.11266667,71.4522743 3.61291667,71.4522743 C3.83404167,71.4522743 4.10954167,72.1831267 4.15666667,72.7005122 C4.24004167,74.8207077 4.46116667,76.9879382 5.37104167,78.4894417 C5.20066667,78.5400949 5.00854167,78.5871299 4.91429167,78.6016022 C2.99666667,78.6016022 2.19554167,77.2412038 2.19554167,68.8146933 C2.19554167,66.1590219 2.92416667,64.3716899 3.55854167,62.7942067 L3.55854167,62.7942067 Z M1.97079167,28.3790208 L26.4250417,28.3790208 L26.4250417,44.8521433 L1.97079167,44.8521433 L1.97079167,28.3790208 Z M5.61391667,21.5263755 L6.96966667,19.9778369 C10.4134167,16.005184 11.2145417,9.83635603 11.3994167,7.61847242 L16.9964167,7.61847242 C17.1812917,9.83635603 17.9824167,16.005184 21.4189167,19.9742188 L22.7964167,21.5517021 C24.8771667,23.9215451 26.0117917,25.2674712 26.3017917,26.5699803 L2.09404167,26.5699803 C2.38404167,25.2638531 3.52229167,23.9070728 5.61391667,21.5263755 L5.61391667,21.5263755 Z M10.1270417,2.33969234 L10.8701667,2.33969234 L10.8701667,5.80943195 L10.1270417,5.80943195 L10.1270417,2.33969234 Z M12.6826667,2.33969234 L13.3750417,2.33969234 L13.3750417,5.80943195 L12.6826667,5.80943195 L12.6826667,2.33969234 Z M15.1875417,2.33969234 L15.8835417,2.33969234 L15.8835417,5.80943195 L15.1875417,5.80943195 L15.1875417,2.33969234 Z M17.6960417,2.33969234 L18.2687917,2.33969234 L18.2687917,5.80943195 L17.8446667,5.80943195 C17.7866667,5.80943195 17.7467917,5.86370317 17.6960417,5.87455741 L17.6960417,2.33969234 L17.6960417,2.33969234 Z M0.383041667,68.8146933 C0.383041667,76.0255286 0.687541667,80.4034066 5.01579167,80.4034066 L5.02666667,80.4034066 C5.14266667,80.3889342 6.00904167,80.2586833 6.79566667,79.8787848 C7.37929167,80.200794 8.06804167,80.4106427 8.95254167,80.4106427 C10.1016667,80.4106427 10.9281667,80.0813973 11.5589167,79.5495395 C12.2621667,80.1175782 13.1502917,80.4106427 14.2631667,80.4106427 L14.2667917,80.4106427 C15.3579167,80.4034066 16.2134167,80.110342 16.8767917,79.5567756 C17.5075417,80.0850154 18.3340417,80.4106427 19.4722917,80.4106427 C20.2806667,80.4106427 20.9150417,80.2261206 21.4696667,79.9511464 C22.0677917,80.3274269 22.9015417,80.4106427 23.4815417,80.4106427 L23.5721667,80.4106427 C28.0345417,80.4106427 28.4006667,75.1608073 28.4006667,68.8146933 C28.4006667,65.7863596 27.4509167,63.7312896 26.6896667,62.0778266 C26.1386667,60.8766238 25.6601667,59.8418526 25.6601667,58.7093933 C25.6601667,55.9089986 26.5374167,52.8481022 27.2442917,50.384189 C27.7771667,48.5244954 28.2375417,46.9144494 28.2375417,45.7566635 L28.2375417,27.1995264 C28.2375417,24.9961151 26.7911667,23.3498883 24.1594167,20.3577354 L22.7927917,18.7947244 C19.8347917,15.3756379 19.0264167,9.81826563 18.8161667,7.61847242 L19.1750417,7.61847242 C19.6752917,7.61847242 20.0812917,7.21324735 20.0812917,6.71395219 L20.0812917,1.4351721 C20.0812917,0.939495016 19.6752917,0.53065187 19.1750417,0.53065187 L9.22079167,0.53065187 C8.72054167,0.53065187 8.31454167,0.939495016 8.31454167,1.4351721 L8.31454167,6.71395219 C8.31454167,7.21324735 8.72054167,7.61847242 9.22079167,7.61847242 L9.57966667,7.61847242 C9.36941667,9.81826563 8.56104167,15.3756379 5.59579167,18.7947244 L4.25091667,20.3324088 C1.61191667,23.3390341 0.158291667,24.9924971 0.158291667,27.1995264 L0.158291667,45.7566635 C0.158291667,46.9216856 0.629541667,48.5281135 1.17329167,50.3914252 C1.89466667,52.8517202 2.79366667,55.9126167 2.79366667,58.7093933 C2.79366667,59.8635611 2.36954167,60.9091865 1.88016667,62.1176255 C1.21316667,63.7638523 0.383041667,65.8080681 0.383041667,68.8146933 L0.383041667,68.8146933 Z" id="icon_bottle" fill="#51BE9D"></path>
    </g>
</svg>