<?xml version="1.0" encoding="UTF-8" standalone="no"?>
<svg width="101px" height="87px" viewBox="0 0 101 87" version="1.1" xmlns="http://www.w3.org/2000/svg" xmlns:xlink="http://www.w3.org/1999/xlink">
    <g id="icon_distribution">
        <path d="M11.2984056,22.8807542 C12.5143126,17.4959031 17.9686847,13.1306187 23.5009939,13.1306187 L50.9990061,13.1306187 C56.5224025,13.1306187 61.5019402,17.5764741 62.1210892,23.0604875 L67.5,70.7033316 L0.5,70.7033316 L11.2984056,22.8807542 Z" id="Rectangle-13" stroke="#51BE9D" stroke-width="2" fill="transparent"></path>
        <path d="M47.8689087,47.1905628 L49.7914321,46.6337491 L56.1310913,68.9649105 L54.2085679,69.5217242 L47.8689087,47.1905628 L47.8689087,47.1905628 Z" id="Rectangle-14" fill="#099870"></path>
        <path d="M54.0520005,42.7701804 C54.5608244,42.5520273 55.1467395,42.7878643 55.3640388,43.304933 L55.3640388,43.304933 C55.5798337,43.8184218 55.3454851,44.4101634 54.8334627,44.6296878 L41.9479995,50.1541983 C41.4391756,50.3723513 40.8532605,50.1365144 40.6359612,49.6194456 L40.6359612,49.6194456 C40.4201663,49.1059568 40.6545149,48.5142152 41.1665373,48.2946909 L54.0520005,42.7701804 L54.0520005,42.7701804 Z" id="Rectangle-14-Copy" fill="#099870"></path>
        <rect id="Rectangle-16" fill="#099870" x="71" y="0" width="3" height="69.693284"></rect>
        <rect id="Rectangle-17" fill="#099870" x="71" y="70.7033316" width="28" height="3.03014278"></rect>
        <path d="M2.50086422,54.4946672 C1.39581743,54.3976107 0.5,55.2194862 0.5,56.325709 L0.5,69.5126434 C0.5,70.6209564 1.397203,71.5190299 2.49828427,71.5185493 L66.5017157,71.4906122 C67.6053377,71.4901304 68.5,70.5881484 68.5,69.492063 L68.5,55.3065602 C68.5,54.2032737 67.6041422,53.3088832 66.5026083,53.3088832 L61.4973917,53.3088832 C60.3942627,53.3088832 59.1246731,54.1302622 58.6657257,55.1346395 L54.3342743,64.6137457 C53.8735173,65.622083 52.6125667,66.4395019 51.500385,66.4395019 L45.499615,66.4395019 C44.3952581,66.4395019 43.402295,65.551322 43.2805458,64.4445689 L42.7194542,59.3440067 C42.598253,58.2422356 41.5980496,57.3490736 40.4914698,57.3490736 L32.5085302,57.3490736 C31.3992496,57.3490736 30.3177342,56.4746124 30.0907277,55.3854973 L26.9092723,40.1217457 C26.6832374,39.0372924 25.6017394,38.1581693 24.5020869,38.1581693 L22.4979131,38.1581693 C21.3944962,38.1581693 20.6446962,39.0350698 20.8267635,40.1384492 L23.1732365,54.3587461 C23.353703,55.4524245 22.5983727,56.2598359 21.4991358,56.1632897 L2.50086422,54.4946672 Z" id="Path-18" stroke="#51BE9D" stroke-width="1.5" fill="#EFFEFA"></path>
        <ellipse id="Oval-5" stroke="#51BE9D" stroke-width="1.5" fill="#A1EAD6" cx="14" cy="71.9947637" rx="13.5" ry="13.6356425"></ellipse>
        <ellipse id="Oval-5-Copy" stroke="#51BE9D" stroke-width="1.5" fill="#A1EAD6" cx="63.5" cy="71.9947637" rx="13.5" ry="13.6356425"></ellipse>
        <ellipse id="Oval-5-Copy-2" stroke="#51BE9D" stroke-width="1.5" fill="#FFFFFF" cx="63.5" cy="71.9947637" rx="7" ry="7.07033316"></ellipse>
        <ellipse id="Oval-5-Copy-3" stroke="#51BE9D" stroke-width="1.5" fill="#FFFFFF" cx="14" cy="71.9947637" rx="7" ry="7.07033316"></ellipse>
    </g>
</svg>