<?xml version="1.0" encoding="UTF-8" standalone="no"?>
<svg width="1440px" height="349px" viewBox="0 0 1440 349" version="1.1" xmlns="http://www.w3.org/2000/svg" xmlns:xlink="http://www.w3.org/1999/xlink">
    <!-- Generator: Sketch 3.8.3 (29802) - http://www.bohemiancoding.com/sketch -->
    <title>sine_illus</title>
    <desc>Created with Sketch.</desc>
    <defs></defs>
    <g id="Page-1" stroke="none" stroke-width="1" fill="none" fill-rule="evenodd">
        <g id="Desktop-HD" transform="translate(0.000000, -181.000000)">
            <g id="Group">
                <g id="sine_illus" transform="translate(0.000000, 182.000000)">
                    <g id="buffer" opacity="0.923565765" transform="translate(905.855823, 142.000000)">
                        <path d="M61.7877052,78 C68.297875,78 73.5754104,72.4035594 73.5754104,65.5 C73.5754104,58.5964406 68.297875,53 61.7877052,53 C55.2775354,53 50,58.5964406 50,65.5 C50,72.4035594 55.2775354,78 61.7877052,78 Z" id="buffer-red" stroke="#D64242"></path>
                        <path d="M61.2904925,95 C76.9149001,95 89.580985,81.5685425 89.580985,65 C89.580985,48.4314575 76.9149001,35 61.2904925,35 C45.6660849,35 33,48.4314575 33,65 C33,81.5685425 45.6660849,95 61.2904925,95 Z" id="buffer-yellow" stroke="#F7D43F"></path>
                        <path d="M61.2960671,130 C95.1489502,130 122.592134,100.898509 122.592134,65 C122.592134,29.1014913 95.1489502,0 61.2960671,0 C27.443184,0 0,29.1014913 0,65 C0,100.898509 27.443184,130 61.2960671,130 Z" id="buffer-green" stroke="#74C080"></path>
                    </g>
                    <path d="M-1.47186029e-07,0.322556314 C107.637932,0.322556319 250.101182,347.352404 304.130167,347.352409 C367.726885,347.352415 505.640769,68.0647653 570.590456,68.0647671 C635.540142,68.0647688 690.988505,286.077324 790.387176,286.077339 C889.785846,286.077355 996.760481,116.765545 1189.65341,216.000938 C1400.01351,324.222465 1440,236.092728 1440,236.092728" id="sine-1" stroke="#0090C4"></path>
                    <path d="M0,91.0385609 C105.697899,91.0385609 208.455687,327.608961 256.246173,327.608964 C319.842891,327.608969 453.453804,91.0385596 518.40349,91.0385609 C583.353176,91.0385622 643.104512,280.452948 742.503182,280.45296 C841.901853,280.452972 948.876488,150.154166 1141.76942,226.523637 C1352.12952,309.808646 1440,226.523638 1440,226.523638" id="sine-2" stroke="#0090C4"></path>
                    <ellipse id="Oval-4" stroke="#0090C4" fill="#26C3DC" cx="967.357671" cy="207.5" rx="3.35767098" ry="3.5"></ellipse>
                </g>
            </g>
        </g>
    </g>
</svg>