<?xml version="1.0" encoding="UTF-8" standalone="no"?>
<svg width="1440px" height="351px" viewBox="0 0 1440 351" version="1.1" xmlns="http://www.w3.org/2000/svg" xmlns:xlink="http://www.w3.org/1999/xlink">
    <!-- Generator: Sketch 3.8.3 (29802) - http://www.bohemiancoding.com/sketch -->
    <title>sine-illus</title>
    <desc>Created with Sketch.</desc>
    <defs></defs>
    <g id="Page-1" stroke="none" stroke-width="1" fill="none" fill-rule="evenodd">
        <g id="Desktop-HD" transform="translate(0.000000, -179.000000)">
            <g id="Group">
                <g id="sine-illus" transform="translate(-49.000000, 179.000000)">
                    <g id="buffer" opacity="0.923565765" transform="translate(948.855823, 133.000000)">
                        <path d="M71.5718901,90.9814182 C79.5234946,90.9814182 85.9695436,84.1458542 85.9695436,75.7137587 C85.9695436,67.2816632 79.5234946,60.4460992 71.5718901,60.4460992 C63.6202856,60.4460992 57.1742365,67.2816632 57.1742365,75.7137587 C57.1742365,84.1458542 63.6202856,90.9814182 71.5718901,90.9814182 Z" id="buffer-red" stroke="#D64242"></path>
                        <path d="M71.6344862,109.339694 C89.1473303,109.339694 103.344296,94.2848502 103.344296,75.7137587 C103.344296,57.1426672 89.1473303,42.0878229 71.6344862,42.0878229 C54.121642,42.0878229 39.9246767,57.1426672 39.9246767,75.7137587 C39.9246767,94.2848502 54.121642,109.339694 71.6344862,109.339694 Z" id="buffer-yellow" stroke="#F7D43F"></path>
                        <path d="M71.7596783,150.99427 C110.966791,150.99427 142.750436,117.290037 142.750436,75.7137587 C142.750436,34.1374805 110.966791,0.433247612 71.7596783,0.433247612 C32.5525654,0.433247612 0.76892047,34.1374805 0.76892047,75.7137587 C0.76892047,117.290037 32.5525654,150.99427 71.7596783,150.99427 Z" id="buffer-green" stroke="#74C080"></path>
                    </g>
                    <path d="M0.488526897,71.0647657 C12.3274243,71.0615063 23.302373,0.80647391 108.805879,0.806473913 C194.309385,0.806473917 299.101182,350.352404 353.130167,350.352409 C416.726885,350.352415 554.640769,71.0647653 619.590456,71.0647671 C684.540142,71.0647688 739.988505,289.077324 839.387176,289.077339 C938.785846,289.077355 1045.76048,119.765545 1238.65341,219.000938 C1449.01351,327.222465 1605.28583,194.865844 1605.28583,194.865844" id="sine-1" stroke="#0090C4"></path>
                    <path d="M49,94.0385609 C154.697899,94.0385609 257.455687,330.608961 305.246173,330.608964 C368.842891,330.608969 502.453804,94.0385596 567.40349,94.0385609 C632.353176,94.0385622 692.104512,283.452948 791.503182,283.45296 C890.901853,283.452972 997.876488,153.154166 1190.76942,229.523637 C1401.12952,312.808646 1557.40184,210.949776 1557.40184,210.949776" id="sine-2" stroke="#0090C4"></path>
                    <ellipse id="Oval-4" stroke="#0090C4" fill="#26C3DC" cx="1020.32625" cy="209.5" rx="3.35767098" ry="3.5"></ellipse>
                </g>
            </g>
        </g>
    </g>
</svg>