<?xml version="1.0" encoding="UTF-8" standalone="no"?>
<svg width="200px" height="21px" viewBox="0 0 200 21" version="1.1" xmlns="http://www.w3.org/2000/svg" xmlns:xlink="http://www.w3.org/1999/xlink">
    <g id="Logo">
        <path d="M1.14965054,0.459770115 C0.514716081,0.459770115 -5.48870267e-16,0.963977452 -5.48870267e-16,1.61058165 L-5.48870267e-16,18.1595333 C-5.48870267e-16,18.795109 0.50884441,19.3103448 1.14075018,19.3103448 C1.14075018,19.3103448 5.83098037,19.3103448 11.6619607,19.3103448 C17.4929411,19.3103448 25.4295533,18.6713423 25.4295533,13.8788233 C25.4295533,10.52406 21.542233,9.5655562 21.542233,9.5655562 C21.542233,9.5655562 24.7816666,8.76680304 24.7816666,5.73154101 C24.7816666,2.69627898 20.570403,0.459770115 12.1478758,0.459770115 L1.14965054,0.459770115 Z M5.04009164,12.1154949 L5.04009164,15.5067319 C5.04009164,15.5067319 11.9129439,15.5637707 14.8911798,15.5637707 C17.8694158,15.5637707 19.4730813,15.0086589 19.4730813,13.8011577 C19.4730813,12.1154949 16.9530355,12.1154949 14.8911798,12.1154949 C12.8293242,12.1154949 5.04009164,12.1154949 5.04009164,12.1154949 Z M5.04009164,4.75917303 L5.04009164,7.92052503 C5.04009164,7.92052503 13.7457045,7.97756384 15.5784651,7.97756384 C17.4112257,7.97756384 19.4730813,7.92052513 19.4730813,6.30459621 C19.4730813,4.68866729 17.1821306,4.75917303 15.5784651,4.75917303 C13.9747995,4.75917303 5.04009164,4.75917303 5.04009164,4.75917303 Z M105.576539,0.48232385 C105.576539,0.48232385 119.106935,-0.470571469 118.416609,10.4877244 C117.992668,17.2173955 112.893998,19.5402311 105.576539,19.5402299 C95.1366944,19.5402307 93.0126002,15.1996109 93.0126002,10.0112767 C93.0126002,-0.470571451 105.576539,0.48232385 105.576539,0.48232385 Z M97.8601091,10.0587861 C97.8601091,9.28859782 97.5253307,4.53910357 105.671605,4.53910357 C113.929471,4.28237416 113.594693,9.67369195 113.594693,10.0587861 C113.594692,10.4438802 113.929471,15.8351983 105.671604,15.4501039 C97.8601091,15.4501041 97.8601091,10.8289743 97.8601091,10.0587861 Z M63.0011455,0.689655172 C63.0011455,0.689655172 68.7273239,12.8796362 71.0194731,17.170179 C71.5080737,18.0847624 71.0194731,17.170179 71.0194731,17.170179 C73.6765131,21.0710112 78.4273869,20.7770768 80.8705613,17.170179 C80.8705613,17.170179 79.4959908,19.5245395 80.8705613,17.170179 C82.2451317,14.8158184 88.6597938,0.689655172 88.6597938,0.689655172 L83.6197022,0.689655172 L77.4919015,13.6549075 C76.574318,15.5963383 75.0836053,15.5899571 74.1690378,13.6549075 L68.0412371,0.689655172 L63.0011455,0.689655172 Z M126.460481,0.689655172 L131.271478,0.689655172 L131.271478,12.0443227 C131.271478,13.8719021 132.751566,15.353448 134.575157,15.353448 L147.309681,15.353448 L147.309681,19.3103448 L132.323629,19.1430416 C129.085502,19.1068914 126.460481,16.4430437 126.460481,13.2089734 L126.460481,0.689655172 Z M148.453608,4.93234395 L157.388316,4.93234395 L157.388316,19.3103448 L162.199313,19.3103448 L162.199313,4.93234395 L171.134021,4.93234395 L171.134021,0.689655172 L148.453608,0.689655172 L148.453608,4.93234395 Z M178.235968,19.3103448 L173.424971,19.3103444 L181.907018,3.50505731 C184.434479,-1.20456635 188.587941,-1.23382603 191.182388,3.43673951 L200,19.3103444 L195.189003,19.3103437 L193.127148,15.5637698 L180.297824,15.5637701 L178.235968,19.3103448 Z M181.901489,12.1154945 L191.523482,12.115495 L188.395139,6.02925185 C187.465835,4.22127642 185.960767,4.21810273 185.029833,6.0292517 L181.901489,12.1154945 Z M33.8690876,2.97291723 C33.8690876,1.71190641 34.9003632,0.689655172 36.1604981,0.689655172 L55.8622148,0.689655172 L55.8622153,4.82758621 L38.4509892,4.82758621 L38.4509892,8.04597701 L54.0664376,8.04597701 L54.0664376,12.183908 L38.4509892,12.183908 L38.4509892,15.4022989 L55.8622153,15.4022989 L55.8622148,19.3103448 L36.1604981,19.3103448 C34.894987,19.3103448 33.8690876,18.2826921 33.8690876,17.0270828 L33.8690876,2.97291723 Z" id="BEVOLTA"></path>
    </g>
</svg>